{"title":"Formula 1 2011 Race 10 German Practice 3","uid":6560625,"size":1382594882,"categoryP":"video","categoryS":"tv_shows","magnet":"?xt=urn:btih:b2764ac4c337f010f635078149c8bb83e83d009a&amp;dn=Formula+1+2011+Race+10+German+Practice+3&amp;tr=udp%3A%2F%2Ftracker.openbittorrent.com%3A80&amp;tr=udp%3A%2F%2Fopen.demonii.com%3A1337&amp;tr=udp%3A%2F%2Ftracker.coppersurfer.tk%3A6969&amp;tr=udp%3A%2F%2Fexodus.desync.com%3A6969","seeders":0,"leechers":1,"uploader":"jorrell0733","files":4,"time":1311451124,"description":"Formula One 2011 Season\n\nRace 10: German Grand Prix,  Nurgburgring Circuit.\n\nRecord Source: BBC One Red Button Stream\nOriginal Format: MPEG TS Stream\nDate: Saturday 23rd July 2011\nTime: 10:00 to 11:00\n\nGerman Grand Prix Practice Session 3\n\nBBC F1 coverage of the 3rd Practice Session for the 10th Race meeting of the \n2011 Formula One Season, The German Grand Prix, from the Nurgburgring Curcuit\n\nComplete name                    : F1 2011 Race 10 German Practice 2.mkv\nFormat                           : MPEG-TS\nFile size                        : 1.29 GiB\nDuration                         : 1h 10mn\nOverall bit rate                 : 2 630 Kbps\n\nVideo\nID                               : 901 (0x385)\nMenu ID                          : 1 (0x1)\nFormat                           : MPEG Video\nFormat version                   : Version 2\nFormat profile                   : Main@Main\nFormat settings, BVOP            : Yes\nFormat settings, Matrix          : Default\nFormat settings, GOP             : M=1, N=32\nCodec ID                         : 2\nDuration                         : 1h 10mn\nBit rate mode                    : Variable\nBit rate                         : 2 306 Kbps\nNominal bit rate                 : 15.0 Mbps\nWidth                            : 544 pixels\nHeight                           : 576 pixels\nDisplay aspect ratio             : 16:9\nActiveFormatDescription          : Full frame 16:9 image\nFrame rate                       : 25.000 fps\nColor space                      : YUV\nChroma subsampling               : 4:2:0\nBit depth                        : 8 bits\nScan type                        : Interlaced\nScan order                       : Top Field First\nCompression mode                 : Lossy\nBits/(Pixel*Frame)               : 0.294\nStream size                      : 1.13 GiB (88%)\n\nAudio\nID                               : 951 (0x3B7)\nMenu ID                          : 1 (0x1)\nFormat                           : MPEG Audio\nFormat version                   : Version 1\nFormat profile                   : Layer 2\nMode                             : Joint stereo\nMode extension                   : Intensity Stereo + MS Stereo\nCodec ID                         : 3\nDuration                         : 1h 10mn\nBit rate mode                    : Constant\nBit rate                         : 192 Kbps\nChannel(s)                       : 2 channels\nSampling rate                    : 48.0 KHz\nCompression mode                 : Lossy\nStream size                      : 96.2 MiB (7%)\nLanguage                         : English\n\n\n\n\n\n\n\n\nEnjoy, TheBlackKnight\n\n\n\n","torrent":{"xt":"urn:btih:b2764ac4c337f010f635078149c8bb83e83d009a","amp;dn":"Formula+1+2011+Race+10+German+Practice+3","amp;tr":["udp%3A%2F%2Ftracker.openbittorrent.com%3A80","udp%3A%2F%2Fopen.demonii.com%3A1337","udp%3A%2F%2Ftracker.coppersurfer.tk%3A6969","udp%3A%2F%2Fexodus.desync.com%3A6969"],"infoHash":"b2764ac4c337f010f635078149c8bb83e83d009a","infoHashBuffer":{"type":"Buffer","data":[178,118,74,196,195,55,240,16,246,53,7,129,73,200,187,131,232,61,0,154]},"announce":[],"urlList":[]}}